<svg xmlns="http://www.w3.org/2000/svg" viewBox="0 0 357.75 366.64"><g id="Layer_2" data-name="Layer 2"><g id="OBJECTS"><path d="M357.7,178.9l-.1-2.68-.2-5.37c-.09-1.79-.08-3.58-.27-5.37l-.55-5.36a211.73,211.73,0,0,0-3.21-21.32l-2.56-10.52-.32-1.32c-.12-.43-.27-.86-.4-1.29l-.82-2.59-1.65-5.16a176,176,0,0,0-18.79-39.08,164.93,164.93,0,0,0-28.06-33.1A177.35,177.35,0,0,0,225,5.76,192.25,192.25,0,0,0,182.56,0a198.83,198.83,0,0,0-42.48,3.79l-5.22,1-5.17,1.32c-3.43.89-6.89,1.69-10.24,2.86l-5.06,1.62-2.53.82-.63.2a3,3,0,0,0-.58.22l-.3.11-1.19.47-9.49,3.76L89.77,21a25.81,25.81,0,0,0-2.39,1.27l-2.33,1.33L80.4,26.23A159.14,159.14,0,0,0,62.85,38.52a157.12,157.12,0,0,0-29.19,31,172.05,172.05,0,0,0-20,37.18,196.86,196.86,0,0,0-11,40.39A212.57,212.57,0,0,0,.16,188.63l.23,5.18c.11,1.73.29,3.46.44,5.18s.27,3.45.52,5.16l.71,5.15.36,2.57.47,2.55.94,5.1c.34,1.69.78,3.37,1.16,5s.74,3.38,1.26,5l1.44,5,.36,1.24.43,1.23.86,2.45c1.07,3.28,2.47,6.46,3.8,9.64a95.47,95.47,0,0,0,10.42,17.9,1.19,1.19,0,0,0,2-1.35v0a98.09,98.09,0,0,1-8.76-18c-1.06-3.18-2.19-6.32-3-9.57l-.67-2.41-.33-1.21-.28-1.23-1.08-4.89a185.15,185.15,0,0,1-3.47-39.85,198.89,198.89,0,0,1,16.66-77.25c10.68-24,26.91-45.35,47.62-60.79A143.45,143.45,0,0,1,88.38,40l4.28-2.26,2.13-1.13c.71-.38,1.43-.75,2.15-1.05l8.61-3.81,9.58-3.47,1.2-.43.3-.11s.48-.18,0,0l.59-.17,2.35-.68,4.69-1.35c3.1-1,6.29-1.62,9.46-2.35l4.75-1.07,4.8-.79A182.52,182.52,0,0,1,182,18.8a177.22,177.22,0,0,1,38.1,6c24.76,6.74,47.9,19.14,66.51,36.45A145.17,145.17,0,0,1,310.8,90.41a155.17,155.17,0,0,1,16.1,34.38l1.4,4.56.71,2.28c.11.38.24.76.34,1.14l.27,1.17,2.17,9.31a186.11,186.11,0,0,1,2.66,19l.46,4.78c.15,1.6.11,3.21.18,4.82l.13,4.82.07,2.41a21.71,21.71,0,0,1,0,2.42l-.34,9.67-.09,2.42c-.05.79-.15,1.57-.22,2.36l-.46,4.72c-.35,3.18-.48,6.18-1.11,9.63l-1.59,10.08-.2,1.25v.09c0-.07,0,.23,0,.2l-.12.58-.49,2.35c-.34,1.56-.64,3.13-1,4.68l-1.16,4.63c-.2.77-.38,1.55-.59,2.31l-.69,2.28-1.37,4.56-1.56,4.49c-.27.74-.51,1.5-.79,2.23l-.89,2.2c-.59,1.46-1.14,2.94-1.77,4.39a157,157,0,0,1-8.58,16.8,150.46,150.46,0,0,1-10.71,15.43,148.3,148.3,0,0,1-12.73,13.79,142.21,142.21,0,0,1-30.55,21.85,161.64,161.64,0,0,1-72.89,18.66,142.57,142.57,0,0,1-37.3-4.24c-12-3.08-23.39-8-32.69-14.95a55.71,55.71,0,0,1-11.91-11.89,46.19,46.19,0,0,1-4.2-6.93c-.29-.6-.53-1.23-.8-1.84a18.44,18.44,0,0,1-.76-1.85,38.42,38.42,0,0,1-1.19-3.82l-.5-1.93c-.14-.66-.22-1.33-.34-2a19.32,19.32,0,0,1-.31-2l-.18-2-.1-1v-.92L95,286a20.32,20.32,0,0,1,.09-2.32l.16-2.54,1.13-9.25,1.55-9.66a384.2,384.2,0,0,1,9.14-38.52c3.65-12.78,7.84-25.47,12.38-38.06s9.45-25.08,14.63-37.48,10.58-24.73,16.24-36.95,11.54-24.34,17.58-36.4q4.54-9,9.24-18c0-.06.06-.11.08-.16l4.82,13.55,5.27,16.51,1.31,4.14L189.84,95l2.43,8.36,2.42,8.36,2.27,8.42c1.49,5.63,3.08,11.21,4.49,16.87L205.74,154c1.41,5.65,2.74,11.33,4.11,17l2,8.5,2,8.53c1.29,5.69,2.64,11.37,3.88,17.07l3.76,17.1,3.65,17.14,3.55,17.15,1.77,8.79-.31-.37c-1.06-1.3-2.12-2.6-3.26-3.85-2.22-2.53-4.42-5.06-6.79-7.47-1.17-1.21-2.29-2.46-3.5-3.63L213,246.44c-1.18-1.2-2.47-2.29-3.71-3.42s-2.47-2.28-3.79-3.33l-3.88-3.22c-1.31-1.05-2.66-2.06-4-3.08s-2.71-2-4.08-3-2.74-1.93-4.17-2.82c-2.79-1.85-5.69-3.56-8.6-5.2-1.49-.79-2.95-1.6-4.44-2.35s-3-1.48-4.53-2.17c-3.06-1.35-6.15-2.63-9.3-3.72s-6.36-2-9.57-2.84a88.7,88.7,0,0,0-9.8-1.77,54,54,0,0,0-9.93-.36.5.5,0,0,0,0,1h0a52.37,52.37,0,0,1,9.53,1.43,83.92,83.92,0,0,1,9.24,2.76c3,1.14,6,2.33,8.85,3.75s5.7,2.92,8.45,4.54c1.37.81,2.71,1.69,4.06,2.53s2.64,1.8,4,2.69c2.59,1.87,5.13,3.78,7.57,5.83,1.25,1,2.44,2,3.62,3.1s2.4,2.08,3.53,3.21,2.3,2.19,3.42,3.31l3.3,3.43c1.12,1.12,2.14,2.36,3.2,3.53s2.13,2.34,3.12,3.59l3,3.68c1,1.22,1.94,2.52,2.9,3.77,2,2.5,3.76,5.12,5.58,7.71.93,1.29,1.79,2.62,2.65,4l2.58,4c1.68,2.7,3.28,5.44,4.91,8.16s3.08,5.55,4.58,8.34l4.31,8.5,4,8.63h0l.1.19A9.27,9.27,0,0,0,257,304.72l-3.24-17.37-3.36-17.3-3.46-17.28-3.55-17.26-3.64-17.25L236,201c-1.24-5.75-2.59-11.47-3.89-17.21l-2-8.59-2-8.59c-1.38-5.72-2.7-11.45-4.12-17.16l-4.32-17.13c-1.42-5.72-3-11.4-4.53-17.1l-2.29-8.55-2.46-8.52-2.46-8.51-1.23-4.26-1.33-4.25c-1.8-5.65-3.55-11.32-5.39-17l-6-16.89c-2.21-5.61-4.55-11.2-6.83-16.8h0a9.25,9.25,0,0,0-16.56-1.32l-.26.42c-3.58,6-6.94,11.93-10.28,18s-6.61,12-9.83,18.08c-6.45,12.1-12.62,24.34-18.61,36.69-12,24.68-23,49.87-32.74,75.72s-18.14,52.34-23.32,80.06l-1.76,10.46-.69,5.29-.34,2.64-.17,1.33-.09.66c0-.27-.07.74-.07.75l0,.32-.19,2.54c0,.88-.14,1.57-.13,2.78v3.28c0,.54,0,1.1,0,1.63l.12,1.53.26,3.06c.07,1,.29,2,.43,3s.32,2,.53,3.05l.73,3A61.22,61.22,0,0,0,76,309.39c.3,1,.76,1.92,1.14,2.88s.79,1.91,1.23,2.84a70.32,70.32,0,0,0,6.25,10.54,78.57,78.57,0,0,0,16.69,17c12.51,9.36,26.62,15.25,40.9,19a165.85,165.85,0,0,0,43.49,5.05,182.36,182.36,0,0,0,83.64-21.47,165.22,165.22,0,0,0,35.48-25.61,171.14,171.14,0,0,0,14.84-16.21,172.93,172.93,0,0,0,12.46-18.1A178.79,178.79,0,0,0,342,265.7c.72-1.67,1.36-3.38,2-5.06l1-2.54c.32-.85.6-1.72.9-2.57l1.77-5.16,1.55-5.21.76-2.6c.24-.87.45-1.75.67-2.63l1.3-5.26c.4-1.76.73-3.53,1.09-5.3l.52-2.65.14-.66c0-.26,0,.1.12-.66l0-.32.19-1.26c1-6.76,2.13-13.23,2.63-20.71l.47-5.43c.08-.91.17-1.82.23-2.71l.07-2.68.27-10.71C357.78,180.69,357.73,179.79,357.7,178.9Z"/></g></g></svg>